A love story between influential filmmaker Alfred Hitchcock and wife Alma Reville during the filming of Psycho in 1959.

Starring: Anthony Hopkins, Helen Mirren, Scarlett Johansson, Jessica Biel, James D'Arcy, Danny Huston, Toni Collette, Michael Stuhlbarg, Michael Wincott, Kurtwood Smith, Richard Portnow, Ralph Macchio
Director: Sacha Gervasi

 
http://www.imdb.com/title/tt0975645/


 
http://stpicz.com/0896_vlcsnap_2013_03_11_20h09m04s244_8o54.png 
http://stpicz.com/9700_vlcsnap_2013_03_11_20h12m29s3_alsd.png 
http://stpicz.com/7567_vlcsnap_2013_03_11_20h14m34s219_fn9d.png[ 
http://stpicz.com/4928_vlcsnap_2013_03_11_20h16m54s85_im09.png 
http://stpicz.com/0230_vlcsnap_2013_03_11_20h17m45s84_vpa8.png 
http://stpicz.com/4598_vlcsnap_2013_03_11_20h19m24s47_g145.png 
http://stpicz.com/7865_vlcsnap_2013_03_11_20h23m03s189_8e8j.png


General
Unique ID: 188461917178693966406634490997945813115 (0x8DC871E95D460B5AA891863C5F16487B)
Complete name: D:Hitchcock (2012) 720p MKV x264 DTS BRrip [Pioneer].mkv
Format: Matroska
Format version: Version 2
File size: 2.69 GiB
Duration: 1h 38mn
Overall bit rate: 3 911 Kbps
Encoded date: UTC 2013-03-09 21:42:05
Writing application: mkvmerge v5.5.0 ('Healer') built on Apr  6 2012 21:43:24
Writing library: libebml v1.2.3 + libmatroska v1.3.0

Video
ID: 1
Format: AVC
Format/Info: Advanced Video Codec
Format profile: High@L3.1
Format settings, CABAC: Yes
Format settings, ReFrames: 5 frames
Codec ID: V_MPEG4/ISO/AVC
Duration: 1h 38mn
Bit rate: 2 400 Kbps
Width: 1 280 pixels
Height: 528 pixels
Display aspect ratio: 2.40:1
Original display aspect ratio: 2.40:1
Frame rate mode: Constant
Frame rate: 23.976 fps
Color space: YUV
Chroma subsampling: 4:2:0
Bit depth: 8 bits
Scan type: Progressive
Bits/(Pixel*Frame): 0.148
Stream size: 1.60 GiB (59%)
Writing library: x264 core 120
Language: English
Default: Yes
Forced: No
Color primaries: BT.709
Transfer characteristics: BT.709
Matrix coefficients: BT.709

Audio
ID: 2
Format: DTS
Format/Info: Digital Theater Systems
Mode: 16
Format settings, Endianness: Big
Codec ID: A_DTS
Duration: 1h 38mn
Bit rate mode: Constant
Bit rate: 1 509 Kbps
Channel(s): 6 channels
Channel positions: Front: L C R, Side: L R, LFE
Sampling rate: 48.0 KHz
Bit depth: 24 bits
Compression mode: Lossy
Stream size: 1.04 GiB (39%)
Language: English
Default: Yes
Forced: No

Text #1
ID: 3
Format: UTF-8
Codec ID: S_TEXT/UTF8
Codec ID/Info: UTF-8 Plain Text
Language: English
Default: No
Forced: No

Text #2
ID: 4
Format: UTF-8
Codec ID: S_TEXT/UTF8
Codec ID/Info: UTF-8 Plain Text
Language: Portuguese
Default: Yes
Forced: No

Text #3
ID: 5
Format: UTF-8
Codec ID: S_TEXT/UTF8
Codec ID/Info: UTF-8 Plain Text
Language: Dutch
Default: No
Forced: No

Text #4
ID: 6
Format: UTF-8
Codec ID: S_TEXT/UTF8
Codec ID/Info: UTF-8 Plain Text
Language: Persian
Default: No
Forced: No

Text #5
ID: 7
Format: UTF-8
Codec ID: S_TEXT/UTF8
Codec ID/Info: UTF-8 Plain Text
Language: Spanish
Default: No
Forced: No
